HIERARCHY
ROOT Hips
{
    OFFSET   0.000000   0.000000   0.000000
    CHANNELS 6 Xposition Yposition Zposition Zrotation Xrotation Yrotation
    JOINT Chest
    {
        OFFSET   0.000000   8.007230   0.000000
        CHANNELS 3 Zrotation Xrotation Yrotation
        JOINT Chest2
        {
            OFFSET   0.000000  22.077100   0.000000
            CHANNELS 3 Zrotation Xrotation Yrotation
            JOINT Neck
            {
                OFFSET   0.000000  23.254800  -0.000021
                CHANNELS 3 Zrotation Xrotation Yrotation
                JOINT Head
                {
                    OFFSET   0.000000  14.370000   1.956610
                    CHANNELS 3 Zrotation Xrotation Yrotation
                    End Site
                    {
                        OFFSET   0.000000  19.566000   0.000000
                    }
                }
            }
            JOINT LeftCollar
            {
                OFFSET   3.911900  19.017000  -0.467063
                CHANNELS 3 Zrotation Xrotation Yrotation
                JOINT LeftShoulder
                {
                    OFFSET  10.383700   0.000000   0.000000
                    CHANNELS 3 Zrotation Xrotation Yrotation
                    JOINT LeftElbow
                    {
                        OFFSET  26.662100   0.001529   0.000325
                        CHANNELS 3 Zrotation Xrotation Yrotation
                        JOINT LeftWrist
                        {
                            OFFSET  28.869000  -0.000011  -0.000096
                            CHANNELS 3 Zrotation Xrotation Yrotation
                            JOINT LeftFinger0
                            {
                                OFFSET   2.044650  -2.323460   3.252850
                                CHANNELS 3 Zrotation Xrotation Yrotation
                                JOINT LeftFinger01
                                {
                                    OFFSET   3.088130   0.000000   0.000000
                                    CHANNELS 3 Zrotation Xrotation Yrotation
                                    JOINT LeftFinger02
                                    {
                                        OFFSET   2.639460   0.000000   0.000000
                                        CHANNELS 3 Zrotation Xrotation Yrotation
                                        End Site
                                        {
                                            OFFSET   2.582190   0.000000   0.000000
                                        }
                                    }
                                }
                            }
                            JOINT LeftFinger1
                            {
                                OFFSET   8.364480   0.000000   3.252850
                                CHANNELS 3 Zrotation Xrotation Yrotation
                                JOINT LeftFinger11
                                {
                                    OFFSET   4.646930   0.000000   0.000000
                                    CHANNELS 3 Zrotation Xrotation Yrotation
                                    JOINT LeftFinger12
                                    {
                                        OFFSET   2.323460   0.000000   0.000000
                                        CHANNELS 3 Zrotation Xrotation Yrotation
                                        End Site
                                        {
                                            OFFSET   2.273050   0.000000   0.000000
                                        }
                                    }
                                }
                            }
                            JOINT LeftFinger2
                            {
                                OFFSET   8.364480   0.000016   1.078090
                                CHANNELS 3 Zrotation Xrotation Yrotation
                                JOINT LeftFinger21
                                {
                                    OFFSET   5.111620   0.000000   0.000000
                                    CHANNELS 3 Zrotation Xrotation Yrotation
                                    JOINT LeftFinger22
                                    {
                                        OFFSET   2.788160   0.000017   0.000000
                                        CHANNELS 3 Zrotation Xrotation Yrotation
                                        End Site
                                        {
                                            OFFSET   2.727660   0.000000   0.000000
                                        }
                                    }
                                }
                            }
                            JOINT LeftFinger3
                            {
                                OFFSET   7.899780   0.000015  -1.078090
                                CHANNELS 3 Zrotation Xrotation Yrotation
                                JOINT LeftFinger31
                                {
                                    OFFSET   4.646920   0.000000   0.000000
                                    CHANNELS 3 Zrotation Xrotation Yrotation
                                    JOINT LeftFinger32
                                    {
                                        OFFSET   2.323470   0.000000   0.000000
                                        CHANNELS 3 Zrotation Xrotation Yrotation
                                        End Site
                                        {
                                            OFFSET   2.273050   0.000000   0.000000
                                        }
                                    }
                                }
                            }
                            JOINT LeftFinger4
                            {
                                OFFSET   7.435090   0.000000  -3.252850
                                CHANNELS 3 Zrotation Xrotation Yrotation
                                JOINT LeftFinger41
                                {
                                    OFFSET   3.717550   0.000000   0.000000
                                    CHANNELS 3 Zrotation Xrotation Yrotation
                                    JOINT LeftFinger42
                                    {
                                        OFFSET   1.858760   0.000000   0.000000
                                        CHANNELS 3 Zrotation Xrotation Yrotation
                                        End Site
                                        {
                                            OFFSET   1.818440   0.000000   0.000000
                                        }
                                    }
                                }
                            }
                        }
                    }
                }
            }
            JOINT RightCollar
            {
                OFFSET  -3.911900  19.017000  -0.467062
                CHANNELS 3 Zrotation Xrotation Yrotation
                JOINT RightShoulder
                {
                    OFFSET -10.383700   0.000015   0.000000
                    CHANNELS 3 Zrotation Xrotation Yrotation
                    JOINT RightElbow
                    {
                        OFFSET -26.662100   0.001341   0.000385
                        CHANNELS 3 Zrotation Xrotation Yrotation
                        JOINT RightWrist
                        {
                            OFFSET -28.869000   0.000025  -0.000080
                            CHANNELS 3 Zrotation Xrotation Yrotation
                            JOINT RightFinger0
                            {
                                OFFSET  -2.044650  -2.323490   3.252850
                                CHANNELS 3 Zrotation Xrotation Yrotation
                                JOINT RightFinger01
                                {
                                    OFFSET  -3.088130   0.000000   0.000000
                                    CHANNELS 3 Zrotation Xrotation Yrotation
                                    JOINT RightFinger02
                                    {
                                        OFFSET  -2.639460   0.000000   0.000000
                                        CHANNELS 3 Zrotation Xrotation Yrotation
                                        End Site
                                        {
                                            OFFSET  -2.582190   0.000000   0.000000
                                        }
                                    }
                                }
                            }
                            JOINT RightFinger1
                            {
                                OFFSET  -8.364480   0.000000   3.252850
                                CHANNELS 3 Zrotation Xrotation Yrotation
                                JOINT RightFinger11
                                {
                                    OFFSET  -4.646930   0.000000   0.000000
                                    CHANNELS 3 Zrotation Xrotation Yrotation
                                    JOINT RightFinger12
                                    {
                                        OFFSET  -2.323470   0.000000   0.000000
                                        CHANNELS 3 Zrotation Xrotation Yrotation
                                        End Site
                                        {
                                            OFFSET  -2.273050   0.000000   0.000000
                                        }
                                    }
                                }
                            }
                            JOINT RightFinger2
                            {
                                OFFSET  -8.364480   0.000000   1.078090
                                CHANNELS 3 Zrotation Xrotation Yrotation
                                JOINT RightFinger21
                                {
                                    OFFSET  -5.111610   0.000000   0.000000
                                    CHANNELS 3 Zrotation Xrotation Yrotation
                                    JOINT RightFinger22
                                    {
                                        OFFSET  -2.788160   0.000000   0.000000
                                        CHANNELS 3 Zrotation Xrotation Yrotation
                                        End Site
                                        {
                                            OFFSET  -2.727660   0.000000   0.000000
                                        }
                                    }
                                }
                            }
                            JOINT RightFinger3
                            {
                                OFFSET  -7.899780   0.000000  -1.078090
                                CHANNELS 3 Zrotation Xrotation Yrotation
                                JOINT RightFinger31
                                {
                                    OFFSET  -4.646920   0.000000   0.000000
                                    CHANNELS 3 Zrotation Xrotation Yrotation
                                    JOINT RightFinger32
                                    {
                                        OFFSET  -2.323470   0.000000   0.000000
                                        CHANNELS 3 Zrotation Xrotation Yrotation
                                        End Site
                                        {
                                            OFFSET  -2.273050   0.000000   0.000000
                                        }
                                    }
                                }
                            }
                            JOINT RightFinger4
                            {
                                OFFSET  -7.435090   0.000000  -3.252850
                                CHANNELS 3 Zrotation Xrotation Yrotation
                                JOINT RightFinger41
                                {
                                    OFFSET  -3.717550   0.000000   0.000000
                                    CHANNELS 3 Zrotation Xrotation Yrotation
                                    JOINT RightFinger42
                                    {
                                        OFFSET  -1.858770   0.000000   0.000000
                                        CHANNELS 3 Zrotation Xrotation Yrotation
                                        End Site
                                        {
                                            OFFSET  -1.818440   0.000000   0.000000
                                        }
                                    }
                                }
                            }
                        }
                    }
                }
            }
        }
    }
    JOINT LeftHip
    {
        OFFSET   9.783010   0.000000   0.000000
        CHANNELS 3 Zrotation Xrotation Yrotation
        JOINT LeftKnee
        {
            OFFSET   0.000070 -41.789100   0.000028
            CHANNELS 3 Zrotation Xrotation Yrotation
            JOINT LeftAnkle
            {
                OFFSET   0.000087 -41.133200  -0.000100
                CHANNELS 3 Zrotation Xrotation Yrotation
                JOINT LeftToe
                {
                    OFFSET   0.000000  -6.358960  14.674500
                    CHANNELS 3 Zrotation Xrotation Yrotation
                    End Site
                    {
                        OFFSET   0.000000   0.000000   3.913200
                    }
                }
            }
        }
    }
    JOINT RightHip
    {
        OFFSET  -9.783020   0.000000   0.000000
        CHANNELS 3 Zrotation Xrotation Yrotation
        JOINT RightKnee
        {
            OFFSET   0.000044 -41.789100  -0.000870
            CHANNELS 3 Zrotation Xrotation Yrotation
            JOINT RightAnkle
            {
                OFFSET  -0.000090 -41.133200  -0.000245
                CHANNELS 3 Zrotation Xrotation Yrotation
                JOINT RightToe
                {
                    OFFSET   0.000000  -6.358960  14.674500
                    CHANNELS 3 Zrotation Xrotation Yrotation
                    End Site
                    {
                        OFFSET   0.000000   0.000000   3.913200
                    }
                }
            }
        }
    }
}
MOTION
Frames: 6
Frame Time:   0.016667
 -1.391380  89.875800   1.542920   0.544491 -11.948800   8.335660   1.039870   6.900240  -0.253512   2.134240  13.794600  -0.641257  -1.256880   1.850840   0.032607  -2.073590   3.745500   4.028040   0.844403   0.309395   2.443980 -48.351200   6.152270 -66.399200  -2.432890 -16.315200 -113.851000 -32.310200   5.799790  -0.411683  59.274400  54.740600 -108.483000 -30.647600  -0.003727  -0.001552 -10.323800  -0.001380   0.008141  -0.872032   0.372314 -22.532100  -0.774797  -0.003767  -0.001041  -0.542372  -0.004690  -0.001264 -84.210700  -0.001974  -0.008081 -84.210700   0.009842  -0.001061 -63.158000   0.000947  -0.001461 -80.636300  -4.930070   0.813415 -80.671300  -0.002073   0.002490 -60.503500  -0.000454   0.001395 -88.985100  -9.996160   0.173794 -110.000000   0.000575   0.004363 -79.996500  -0.000676   0.002267   6.314600   2.754040   7.554130  67.606400  14.867500   4.187600   1.666010  -5.911170  18.014300 -22.609800 -15.174400   1.063370 -36.122800  29.720400  64.699900  32.281700   0.001692  -0.001030  11.140800   0.002033   0.005907  34.693700   3.102650   4.469230  28.486200  -0.003016  -0.000720  19.940300   0.002184   0.007480  28.611400  -3.030500  -5.536910  40.551500   0.005522   0.002300  27.007300   0.003260  -0.002956  28.428800  -4.500560  -8.248490  40.410500   0.007578  -0.000000  26.913400   0.002146  -0.000290  41.622400  -6.268500  -7.006070  63.012600  -0.001364   0.001107  41.966400   0.000744   0.006239   2.001580  10.591000   0.869327   1.440290   3.304180  10.179300  -7.133490  -2.703400   1.114650  -0.000000   0.000000  -0.000000   3.341680  11.213400  -8.605960  -0.483459   5.600930 -11.770600  -9.229350  -1.466910  -5.530160   0.000000   0.000000   0.000000
 -1.395080  89.883300   1.551060   0.489766 -11.926600   8.107550   1.066370   6.896770  -0.243806   2.185950  13.787800  -0.623797  -1.198950   1.739620   0.032124  -1.947700   3.523160   4.221750   0.759698   0.426262   2.608180 -49.108400   6.119060 -66.023000  -2.635500 -15.961500 -114.101000 -32.309200   6.006570  -0.297494  59.283200  54.756300 -108.490000 -30.754300  -0.003653  -0.001539 -10.377200  -0.001359   0.008303  -0.821537   0.329641 -21.636700  -0.724386  -0.003941  -0.001093  -0.507076  -0.004699  -0.001301 -84.131300  -0.001964  -0.008178 -84.131300   0.009975  -0.001081 -63.098500   0.000917  -0.001455 -80.585700  -4.930110   0.817435 -80.620900  -0.001953   0.002368 -60.465700  -0.000516   0.001345 -88.985000  -9.996230   0.173882 -110.000000   0.000560   0.004366 -79.996600  -0.000656   0.002210   6.326290   2.877120   7.563840  67.525400  14.592600   4.080870   1.588540  -5.899270  18.412700 -22.928200 -15.895800   0.947650 -36.095400  29.881000  64.805300  32.459300   0.001690  -0.001026  11.229600   0.002030   0.005923  34.930200   2.965670   4.237000  28.669700  -0.003059  -0.000710  20.068800   0.002113   0.007497  28.610500  -3.160680  -5.772460  40.956500   0.005474   0.002275  27.277000   0.003228  -0.002934  28.422200  -4.634810  -8.492160  40.829300   0.007523   0.000000  27.192300   0.002160  -0.000289  41.841100  -6.483150  -7.186470  63.374300  -0.001360   0.001108  42.207300   0.000744   0.006240   1.993820  10.588700   0.843755   1.443380   3.321000  10.276800  -7.117590  -2.756900   1.263890   0.000000   0.000000  -0.000000   3.324570  11.155300  -8.642690  -0.490982   5.620100 -11.650300  -9.235010  -1.477230  -5.392010  -0.000000   0.000000   0.000000
 -1.405480  89.891200   1.566510   0.432133 -11.890900   7.887570   1.078620   6.885790  -0.213773   2.207520  13.766300  -0.565358  -1.143500   1.587080   0.031749  -1.881070   3.214320   4.248210   0.722743   0.615423   2.696820 -49.801300   5.982720 -65.676500  -2.624690 -15.565000 -114.430000 -32.251400   6.418950  -0.079758  59.284400  54.758500 -108.491000 -30.769600  -0.003581  -0.001525 -10.384800  -0.001337   0.008465  -0.798923   0.305919 -21.056500  -0.701204  -0.004113  -0.001144  -0.490839  -0.004706  -0.001337 -84.051900  -0.001954  -0.008275 -84.052000   0.010107  -0.001101 -63.038900   0.000885  -0.001449 -80.535100  -4.930110   0.821455 -80.570500  -0.001835   0.002245 -60.427900  -0.000553   0.001294 -88.985000  -9.996290   0.173971 -110.000000   0.000543   0.004367 -79.996700  -0.000636   0.002155   6.332430   2.952570   7.565630  67.513100  14.440300   3.913570   1.551270  -5.901840  18.646700 -23.085800 -16.509100   0.832312 -36.062200  30.119200  65.060700  32.655000   0.001687  -0.001021  11.327500   0.002027   0.005944  35.154500   2.836850   4.019680  28.844400  -0.003100  -0.000701  20.191100   0.002042   0.007514  28.607900  -3.282680  -5.993710  41.323300   0.005426   0.002250  27.521300   0.003197  -0.002912  28.414200  -4.761490  -8.722830  41.221400   0.007465  -0.000000  27.453500   0.002173  -0.000289  42.045900  -6.686480  -7.356820  63.714900  -0.001355   0.001108  42.434100   0.000743   0.006241   1.978310  10.572500   0.828247   1.452460   3.355570  10.362400  -7.095960  -2.815530   1.408450  -0.000000   0.000000   0.000000   3.311970  11.099000  -8.660690  -0.500429   5.628510 -11.520000  -9.237350  -1.478920  -5.284550   0.000000   0.000000   0.000000
 -1.424380  89.895300   1.582890   0.374905 -11.834200   7.684990   1.070520   6.866170  -0.152639   2.180560  13.728200  -0.440706  -1.096540   1.471350   0.031534  -1.816270   2.979980   3.281510   0.747264   0.787704   2.687600 -50.190800   5.793740 -65.452500  -2.501470 -15.339100 -114.741000 -32.001600   6.941740   0.171620  59.202600  54.616600 -108.424000 -30.574300  -0.003525  -0.001512 -10.287100  -0.001313   0.008631  -0.898401   0.342058 -20.970700  -0.788134  -0.004280  -0.001193  -0.551695  -0.004712  -0.001373 -84.104200  -0.001942  -0.008372 -84.104300   0.010238  -0.001121 -63.078200   0.000854  -0.001442 -80.669500  -4.930090   0.809881 -80.704400  -0.001718   0.002118 -60.528300  -0.000419   0.001247 -88.985000  -9.996360   0.174061 -110.000000   0.000522   0.004370 -79.996700  -0.000620   0.002096   6.344520   2.951310   7.500570  67.552900  14.448500   3.762570   1.567060  -5.940400  18.645200 -23.019800 -16.771800   0.733892 -36.023500  30.354200  65.373100  32.828800   0.001685  -0.001037  11.414400   0.002023   0.005957  35.300500   2.750020   3.875730  28.958600  -0.003133  -0.000695  20.271000   0.001970   0.007529  28.603600  -3.366880  -6.147410  41.532900   0.005378   0.002228  27.660900   0.003165  -0.002891  28.406800  -4.847840  -8.881100  41.480400   0.007410  -0.000000  27.626000   0.002186  -0.000292  42.175000  -6.825660  -7.474390  63.932700  -0.001349   0.001107  42.579100   0.000744   0.006240   1.964650  10.521000   0.841890   1.461730   3.403900  10.431200  -7.076660  -2.873490   1.523920   0.000000   0.000000   0.000000   3.304380  11.048900  -8.644030  -0.504685   5.608770 -11.405300  -9.241280  -1.473530  -5.201960  -0.000000   0.000000   0.000000
 -1.444950  89.896800   1.601360   0.324867 -11.766800   7.520370   1.058130   6.840050  -0.090913   2.150540  13.677200  -0.313533  -1.060530   1.410650   0.031388  -1.745100   2.857100   1.857450   0.801843   0.887711   2.653660 -50.256600   5.656390 -65.357300  -2.402400 -15.283500 -114.987000 -31.738800   7.444540   0.417040  59.090300  54.420400 -108.333000 -30.285500  -0.003469  -0.001499 -10.142700  -0.001289   0.008796  -1.073920   0.410135 -20.958600  -0.941942  -0.004444  -0.001241  -0.659368  -0.004716  -0.001409 -84.176100  -0.001928  -0.008467 -84.176100   0.010369  -0.001143 -63.132100   0.000821  -0.001433 -80.803900  -4.930030   0.798307 -80.838300  -0.001603   0.001989 -60.628700  -0.000093   0.001197 -88.985000  -9.996420   0.174152 -110.000000   0.000502   0.004371 -79.996800  -0.000605   0.002037   6.352990   2.940010   7.398120  67.589800  14.490300   3.675250   1.600970  -5.984600  18.626800 -22.794800 -16.827700   0.683149 -35.967400  30.535200  65.680200  32.970800   0.001684  -0.001053  11.485400   0.002019   0.005974  35.363100   2.712030   3.813710  29.007600  -0.003164  -0.000688  20.305300   0.001898   0.007543  28.600800  -3.404370  -6.216180  41.610200   0.005331   0.002207  27.712400   0.003133  -0.002869  28.402800  -4.886040  -8.951480  41.591800   0.007353   0.000000  27.700100   0.002198  -0.000294  42.228500  -6.887500  -7.526830  64.024000  -0.001343   0.001106  42.640000   0.000745   0.006237   1.955570  10.458800   0.864890   1.465250   3.442010  10.483000  -7.059420  -2.926300   1.609600   0.000000   0.000000   0.000000   3.299450  11.006600  -8.627620  -0.502822   5.562660 -11.343400  -9.245930  -1.464670  -5.126560  -0.000000   0.000000   0.000000
 -1.462870  89.894600   1.618910   0.292613 -11.695000   7.432190   1.037300   6.808810  -0.058200   2.106830  13.615400  -0.243663  -1.040830   1.424470   0.031225  -1.715060   2.885550   0.990884   0.866526   0.884121   2.583290 -49.921300   5.628560 -65.427300  -2.341660 -15.512000 -115.079000 -31.664100   7.706260   0.587942  59.052200  54.353800 -108.302000 -30.107100  -0.003402  -0.001488 -10.053500  -0.001268   0.008957  -1.238310   0.483767 -21.204000  -1.087390  -0.004608  -0.001288  -0.761190  -0.004719  -0.001442 -84.201900  -0.001917  -0.008559 -84.201900   0.010504  -0.001167 -63.151400   0.000787  -0.001426 -80.782700  -4.929930   0.800189 -80.817200  -0.001491   0.001859 -60.612800   0.000401   0.001141 -88.985000  -9.996480   0.174243 -110.000000   0.000489   0.004370 -79.996900  -0.000586   0.001979   6.357960   2.873740   7.328740  67.637600  14.620300   3.679810   1.711520  -6.016270  18.346900 -22.396000 -16.465000   0.713542 -35.840800  30.553200  65.887000  33.056900   0.001690  -0.001014  11.528400   0.002017   0.006005  35.348700   2.728870   3.839090  28.996900  -0.003197  -0.000673  20.297800   0.001829   0.007557  28.601100  -3.389270  -6.188980  41.535200   0.005285   0.002185  27.662400   0.003098  -0.002845  28.403700  -4.874030  -8.929710  41.534800   0.007296   0.000000  27.662200   0.002210  -0.000294  42.209300  -6.868130  -7.511250  63.992200  -0.001338   0.001104  42.618800   0.000746   0.006235   1.955010  10.404900   0.880344   1.459080   3.450120  10.513600  -7.046410  -2.967020   1.653380  -0.000000   0.000000   0.000000   3.299650  10.977400  -8.640670  -0.497278   5.498330 -11.343800  -9.253300  -1.456680  -5.032900   0.000000   0.000000   0.000000
